<?xml version="1.0" standalone="no"?>
<!DOCTYPE svg PUBLIC "-//W3C//DTD SVG 20010904//EN"
 "http://www.w3.org/TR/2001/REC-SVG-20010904/DTD/svg10.dtd">
<svg version="1.0" xmlns="http://www.w3.org/2000/svg"
 width="512.000000pt" height="512.000000pt" viewBox="0 0 512.000000 512.000000"
 preserveAspectRatio="xMidYMid meet">

<g transform="translate(0.000000,512.000000) scale(0.100000,-0.100000)"
fill="#000000" stroke="none">
<path d="M2365 4740 c-364 -23 -759 -174 -1078 -412 -93 -70 -306 -279 -374
-368 -142 -185 -266 -412 -337 -615 -33 -96 -70 -248 -92 -380 -26 -152 -26
-449 -1 -595 45 -258 109 -457 210 -650 50 -96 171 -284 213 -330 12 -14 41
-46 63 -73 49 -58 140 -138 198 -175 23 -15 47 -39 53 -53 15 -34 68 -85 103
-98 16 -6 58 -11 93 -11 79 0 137 29 180 92 25 36 29 50 29 117 0 70 -3 80
-32 123 -54 77 -157 114 -241 85 -43 -15 -45 -15 -85 13 -65 44 -217 208 -217
235 0 4 127 5 283 3 312 -5 330 -8 389 -71 59 -63 58 -53 58 -587 l0 -490 68
0 c83 0 144 26 172 72 19 32 20 49 20 468 0 474 -4 511 -57 611 -43 79 -123
152 -222 201 l-86 43 -379 5 c-324 4 -380 7 -386 20 -4 8 -14 29 -23 46 -30
57 -91 247 -101 314 -3 19 -13 80 -22 135 -34 202 -18 502 37 696 11 36 19 72
19 79 0 31 106 275 159 367 69 118 105 169 183 261 192 227 393 383 633 492
39 18 77 35 85 40 32 16 219 70 310 89 186 39 503 37 690 -5 196 -44 505 -175
620 -263 19 -15 46 -34 60 -43 66 -41 248 -215 334 -318 90 -108 159 -213 218
-335 17 -33 34 -67 38 -77 17 -32 67 -174 88 -248 49 -173 57 -243 57 -490 0
-210 -3 -247 -24 -345 -27 -127 -82 -298 -117 -367 l-24 -48 -359 0 c-332 0
-362 -1 -419 -20 -143 -47 -231 -123 -299 -260 l-38 -75 -3 -470 c-3 -455 -2
-471 17 -502 30 -48 87 -73 166 -73 l65 0 0 478 0 477 24 50 c13 28 38 64 57
79 68 58 80 60 381 64 l278 4 -6 -45 c-6 -41 -4 -47 32 -87 38 -43 118 -100
138 -100 13 0 117 154 170 251 106 193 187 434 226 675 19 116 21 158 17 370
-4 193 -9 258 -26 338 -33 155 -70 278 -111 371 -9 22 -21 51 -25 65 -23 77
-133 269 -229 400 -67 93 -307 342 -396 411 -152 118 -366 242 -515 298 -33
13 -69 27 -80 31 -60 24 -204 63 -310 85 -68 14 -347 37 -395 33 -8 -1 -64 -4
-125 -8z"/>
<path d="M2480 4178 c-199 -177 -378 -364 -426 -444 -10 -17 -14 -16 -60 19
-102 77 -156 109 -167 98 -17 -17 -2 -370 22 -496 28 -151 45 -207 92 -302 47
-93 120 -186 200 -254 55 -47 170 -112 222 -124 l27 -7 0 -213 0 -214 -202 -1
c-112 0 -239 4 -283 10 -220 30 -403 205 -450 431 -23 109 -23 110 28 103 119
-17 230 -72 305 -153 44 -46 94 -133 106 -183 l6 -28 120 0 120 0 0 35 c0 46
-41 154 -91 237 -77 131 -189 220 -379 301 -54 23 -465 109 -475 99 -3 -3 -5
-87 -5 -186 0 -269 37 -409 148 -573 64 -94 197 -212 296 -261 138 -68 222
-82 511 -82 l245 0 0 -638 0 -639 -40 -41 c-86 -91 -81 -242 11 -329 121 -114
330 -62 384 96 29 85 12 160 -51 230 l-44 49 0 498 0 499 35 51 c38 55 124
121 197 153 25 10 92 29 149 40 206 42 285 65 369 107 206 101 367 299 431
530 18 65 22 114 26 282 3 112 1 207 -3 211 -14 13 -351 -54 -459 -90 -223
-76 -378 -218 -459 -422 -14 -38 -29 -89 -33 -113 l-6 -44 119 0 119 0 42 89
c47 99 95 153 175 199 61 35 154 67 216 75 50 6 51 1 23 -113 -41 -169 -149
-304 -301 -376 -55 -27 -226 -74 -266 -74 -77 0 -310 -84 -343 -124 -8 -9 -17
-16 -22 -16 -5 0 -9 129 -9 288 l0 287 108 52 c110 53 163 95 251 200 141 167
210 420 211 771 0 100 -4 182 -8 182 -9 0 -121 -72 -173 -112 l-36 -28 -34 48
c-52 73 -414 429 -447 439 -4 1 -23 -12 -42 -29z m143 -387 c195 -206 261
-331 260 -496 0 -130 -58 -243 -164 -321 -26 -19 -51 -34 -57 -34 -7 0 -12 73
-14 218 -3 246 -7 260 -91 356 l-42 48 -45 -61 c-76 -104 -79 -118 -79 -353
-1 -115 -4 -208 -7 -208 -33 0 -151 117 -182 181 -76 158 -41 366 90 524 69
84 220 235 234 235 6 0 50 -40 97 -89z"/>
<path d="M3563 1394 c-49 -18 -104 -66 -127 -111 -10 -20 -16 -57 -16 -96 0
-56 4 -71 33 -113 45 -68 94 -94 180 -94 78 0 106 12 159 67 58 61 74 150 39
226 -19 41 -66 91 -108 114 -36 20 -114 24 -160 7z"/>
</g>
</svg>
